<svg width="77" height="77" viewBox="0 0 77 77" fill="none" xmlns="http://www.w3.org/2000/svg">
<path fill-rule="evenodd" clip-rule="evenodd" d="M0 38.5C0 17.237 17.237 0 38.5 0C59.763 0 77 17.237 77 38.5C77 59.763 59.763 77 38.5 77C17.237 77 0 59.763 0 38.5ZM38.5 19.25C49.0875 19.25 57.75 27.9125 57.75 38.5C57.75 48.125 50.7719 56.3062 41.1469 57.75V44.0344H45.7188L46.6812 38.5H41.3875V34.8906C41.3875 33.4469 42.1094 32.0031 44.5156 32.0031H46.9219V27.1906C46.9219 27.1906 44.7563 26.7094 42.5906 26.7094C38.2594 26.7094 35.3719 29.3562 35.3719 34.1688V38.5H30.5594V44.0344H35.3719V57.5094C26.2281 56.0656 19.25 48.125 19.25 38.5C19.25 27.9125 27.9125 19.25 38.5 19.25Z" fill="#FE3034"/>
</svg>
