<svg width="77" height="77" viewBox="0 0 77 77" fill="none" xmlns="http://www.w3.org/2000/svg">
<path d="M38.5 45.2375C34.8906 45.2375 31.7625 42.35 31.7625 38.5C31.7625 34.8906 34.65 31.7625 38.5 31.7625C42.1094 31.7625 45.2375 34.65 45.2375 38.5C45.2375 42.1094 42.1094 45.2375 38.5 45.2375Z" fill="#FE3034"/>
<path fill-rule="evenodd" clip-rule="evenodd" d="M46.6812 22.1375H30.3188C28.3938 22.3781 27.4313 22.6187 26.7094 22.8594C25.7469 23.1 25.025 23.5812 24.3031 24.3031C23.7319 24.8743 23.462 25.4455 23.1358 26.136C23.0498 26.3179 22.9597 26.5087 22.8594 26.7094C22.8222 26.821 22.7792 26.9385 22.7331 27.0643C22.4814 27.7521 22.1375 28.6915 22.1375 30.3187V46.6812C22.3781 48.6062 22.6187 49.5687 22.8594 50.2906C23.1 51.2531 23.5813 51.975 24.3031 52.6969C24.8743 53.2681 25.4456 53.538 26.136 53.8642C26.3181 53.9502 26.5085 54.0402 26.7094 54.1406C26.821 54.1778 26.9385 54.2208 27.0643 54.2669C27.7521 54.5186 28.6915 54.8625 30.3188 54.8625H46.6812C48.6062 54.6219 49.5688 54.3812 50.2906 54.1406C51.2531 53.9 51.975 53.4187 52.6969 52.6969C53.2681 52.1257 53.538 51.5545 53.8642 50.864C53.9502 50.682 54.0402 50.4915 54.1406 50.2906C54.1779 50.1789 54.2208 50.0615 54.2669 49.9356C54.5186 49.2479 54.8625 48.3084 54.8625 46.6812V30.3187C54.6219 28.3937 54.3813 27.4312 54.1406 26.7094C53.9 25.7469 53.4187 25.025 52.6969 24.3031C52.1257 23.7319 51.5545 23.462 50.864 23.1358C50.6822 23.0499 50.4912 22.9596 50.2906 22.8594C50.179 22.8221 50.0615 22.7792 49.9357 22.7331C49.2479 22.4814 48.3085 22.1375 46.6812 22.1375ZM38.5 28.1531C32.725 28.1531 28.1531 32.725 28.1531 38.5C28.1531 44.275 32.725 48.8469 38.5 48.8469C44.275 48.8469 48.8469 44.275 48.8469 38.5C48.8469 32.725 44.275 28.1531 38.5 28.1531ZM51.4937 27.9125C51.4937 29.2414 50.4164 30.3187 49.0875 30.3187C47.7586 30.3187 46.6812 29.2414 46.6812 27.9125C46.6812 26.5836 47.7586 25.5062 49.0875 25.5062C50.4164 25.5062 51.4937 26.5836 51.4937 27.9125Z" fill="#FE3034"/>
<path fill-rule="evenodd" clip-rule="evenodd" d="M0 38.5C0 17.237 17.237 0 38.5 0C59.763 0 77 17.237 77 38.5C77 59.763 59.763 77 38.5 77C17.237 77 0 59.763 0 38.5ZM30.3188 18.5281H46.6812C48.8469 18.7687 50.2906 19.0094 51.4937 19.4906C52.9375 20.2125 53.9 20.6937 55.1031 21.8969C56.3062 23.1 57.0281 24.3031 57.5094 25.5062C57.9906 26.7094 58.4719 28.1531 58.4719 30.3187V46.6812C58.2312 48.8469 57.9906 50.2906 57.5094 51.4937C56.7875 52.9375 56.3062 53.9 55.1031 55.1031C53.9 56.3062 52.6969 57.0281 51.4937 57.5094C50.2906 57.9906 48.8469 58.4719 46.6812 58.4719H30.3188C28.1531 58.2312 26.7094 57.9906 25.5063 57.5094C24.0625 56.7875 23.1 56.3062 21.8969 55.1031C20.6938 53.9 19.9719 52.6969 19.4906 51.4937C19.0094 50.2906 18.5281 48.8469 18.5281 46.6812V30.3187C18.7687 28.1531 19.0094 26.7094 19.4906 25.5062C20.2125 24.0625 20.6938 23.1 21.8969 21.8969C23.1 20.6937 24.3031 19.9719 25.5063 19.4906C26.7094 19.0094 28.1531 18.5281 30.3188 18.5281Z" fill="#FE3034"/>
</svg>
