<svg width="143" height="95" viewBox="0 0 143 95" fill="none" xmlns="http://www.w3.org/2000/svg">
<path d="M19.877 40.4223H13.0607V52.9623C13.0607 56.1923 15.3963 56.2873 19.877 56.0498V63.0798C9.19967 64.2673 5.24333 61.2273 5.24333 52.9623V40.4223H0V32.9173H5.24333V26.8373L13.013 24.5098V32.9173H19.8293V40.4223H19.877Z" fill="#FF3034"/>
<path d="M47.4284 32.9171H55.1981V62.9846H47.4284V59.4221C45.0927 62.3671 41.8037 63.7921 37.6091 63.7921C33.5574 63.7921 30.1254 62.2721 27.2177 59.2321C24.3577 56.1446 22.9277 52.3921 22.9277 47.9271C22.9277 43.4621 24.3577 39.7571 27.2177 36.6696C30.1254 33.5821 33.5574 32.0146 37.6091 32.0146C41.8514 32.0146 45.0927 33.4396 47.4284 36.3846V32.9171ZM38.9914 56.4771C41.4224 56.4771 43.3767 55.7171 44.9497 54.1496C46.5704 52.5346 47.3807 50.4921 47.3807 48.0221C47.3807 45.5521 46.6181 43.5096 44.9497 41.9421C43.3767 40.3271 41.3747 39.5196 38.9914 39.5196C36.5604 39.5196 34.6061 40.2796 33.0331 41.9421C31.4601 43.5096 30.6974 45.5521 30.6974 48.0221C30.6974 50.4921 31.4601 52.5346 33.0331 54.1496C34.6061 55.6696 36.6081 56.4771 38.9914 56.4771Z" fill="#FF3034"/>
<path d="M85.3711 32.9171H92.9977V61.5597C92.9977 66.2147 91.4247 69.7296 88.3264 72.1996C85.2281 74.6697 81.5577 75.8571 77.2201 75.8571C70.6897 75.8571 65.5417 73.3396 62.9201 68.4946L69.5457 64.6946C71.0711 67.5446 73.6927 68.9222 77.4584 68.9222C82.3681 68.9222 85.3711 66.2621 85.3711 61.5121V58.2821C83.0831 61.3696 79.8894 62.8422 75.6947 62.8422C71.4047 62.8422 67.8297 61.3221 64.9221 58.3771C62.0621 55.3846 60.6321 51.6796 60.6321 47.4046C60.6321 43.1297 62.0621 39.5196 64.9697 36.5271C67.8774 33.5346 71.4524 32.0146 75.6471 32.0146C79.7941 32.0146 83.0354 33.5346 85.3234 36.5746V32.9171H85.3711ZM82.9877 41.6571C81.4147 40.0896 79.4127 39.3296 76.9341 39.3296C74.4554 39.3296 72.4534 40.0896 70.8328 41.6571C69.2598 43.1771 68.4971 45.1246 68.4971 47.4996C68.4971 52.2971 72.0721 55.7647 76.9341 55.7647C81.7961 55.7647 85.3711 52.3446 85.3711 47.4996C85.3711 45.1721 84.6084 43.1771 82.9877 41.6571Z" fill="#FF3034"/>
<path d="M100.052 63.0322V19.0947H107.822V63.0322H100.052Z" fill="#FF3034"/>
<path d="M134.658 32.9176H143L131.989 62.9851C128.843 71.6301 123.79 75.4301 116.068 75.0026V67.7826C120.215 67.8301 122.551 66.1201 123.981 61.9876L111.588 32.8701H120.12L127.985 53.1051L134.658 32.9176Z" fill="#FF3034"/>
</svg>
