<svg width="133" height="133" viewBox="0 0 133 133" fill="none" xmlns="http://www.w3.org/2000/svg">
<g filter="url(#filter0_d_304_203)">
<circle cx="66.5" cy="36.5" r="36.5" fill="#FF3034"/>
</g>
<path d="M80.6 52.8H51.4C49.5 52.8 48 51.3 48 49.4V21.4C48 19.5 49.5 18 51.4 18H80.6C82.5 18 84 19.5 84 21.4V49.4C84 51.3 82.5 52.8 80.6 52.8Z" stroke="white" stroke-width="2.7151" stroke-miterlimit="10" stroke-linecap="round" stroke-linejoin="round"/>
<path d="M48 43.6999L59 33.3999L69.7 43.6999L77.4 36.9999L84 43.6999" stroke="white" stroke-width="2.7151" stroke-miterlimit="10" stroke-linecap="round" stroke-linejoin="round"/>
<path d="M75 27.8998C75.3 25.2998 73.2 23.1998 70.6 23.4998C68.8 23.6998 67.4 25.0998 67.2 26.8998C66.9 29.4998 69 31.5998 71.6 31.2998C73.4 31.0998 74.8 29.6998 75 27.8998Z" fill="white"/>
<defs>
<filter id="filter0_d_304_203" x="3.8147e-06" y="0" width="133" height="133" filterUnits="userSpaceOnUse" color-interpolation-filters="sRGB">
<feFlood flood-opacity="0" result="BackgroundImageFix"/>
<feColorMatrix in="SourceAlpha" type="matrix" values="0 0 0 0 0 0 0 0 0 0 0 0 0 0 0 0 0 0 127 0" result="hardAlpha"/>
<feMorphology radius="35.4545" operator="erode" in="SourceAlpha" result="effect1_dropShadow_304_203"/>
<feOffset dy="30"/>
<feGaussianBlur stdDeviation="32.7273"/>
<feColorMatrix type="matrix" values="0 0 0 0 0.541176 0 0 0 0 0.313726 0 0 0 0 0.901961 0 0 0 1 0"/>
<feBlend mode="normal" in2="BackgroundImageFix" result="effect1_dropShadow_304_203"/>
<feBlend mode="normal" in="SourceGraphic" in2="effect1_dropShadow_304_203" result="shape"/>
</filter>
</defs>
</svg>
