<svg width="268" height="77" viewBox="0 0 268 77" fill="none" xmlns="http://www.w3.org/2000/svg">
<rect width="79" height="77" rx="38.5" fill="#F9EDED"/>
<path d="M55 38L35.5 49.2583L35.5 26.7417L55 38Z" fill="#FFC44E"/>
<path d="M112.349 46L106.649 26.2H110.969L114.713 40.672L118.937 26.2H121.853L126.065 40.672L129.809 26.2H134.141L128.429 46H124.109L120.389 33.7L116.681 46H112.349ZM140.288 46.384C139.16 46.384 138.132 46.104 137.204 45.544C136.284 44.976 135.552 44.2 135.008 43.216C134.472 42.224 134.204 41.096 134.204 39.832C134.204 38.6 134.464 37.496 134.984 36.52C135.504 35.536 136.22 34.76 137.132 34.192C138.052 33.616 139.104 33.328 140.288 33.328C141.16 33.328 141.972 33.496 142.724 33.832C143.484 34.16 144.104 34.62 144.584 35.212V33.712H148.268V46H144.584V44.38C144.024 45.028 143.38 45.524 142.652 45.868C141.924 46.212 141.136 46.384 140.288 46.384ZM141.38 43.252C142.02 43.252 142.588 43.108 143.084 42.82C143.58 42.524 143.968 42.12 144.248 41.608C144.528 41.096 144.668 40.512 144.668 39.856C144.668 39.192 144.524 38.608 144.236 38.104C143.956 37.592 143.568 37.192 143.072 36.904C142.584 36.608 142.02 36.46 141.38 36.46C140.748 36.46 140.184 36.608 139.688 36.904C139.192 37.192 138.8 37.592 138.512 38.104C138.224 38.616 138.08 39.2 138.08 39.856C138.08 40.512 138.22 41.096 138.5 41.608C138.788 42.12 139.18 42.524 139.676 42.82C140.172 43.108 140.74 43.252 141.38 43.252ZM156.674 46.384C155.45 46.384 154.498 45.996 153.818 45.22C153.138 44.436 152.798 43.344 152.798 41.944V36.508H151.154V33.712H152.798V29.104H156.482V33.712H159.182V36.508H156.482V41.68C156.482 42.144 156.574 42.496 156.758 42.736C156.95 42.976 157.218 43.096 157.562 43.096C157.946 43.096 158.314 42.968 158.666 42.712L159.59 45.664C159.174 45.888 158.706 46.064 158.186 46.192C157.674 46.32 157.17 46.384 156.674 46.384ZM168.522 46.384C167.586 46.384 166.702 46.216 165.87 45.88C165.046 45.544 164.318 45.08 163.686 44.488C163.054 43.888 162.558 43.196 162.198 42.412C161.838 41.62 161.658 40.772 161.658 39.868C161.658 38.996 161.826 38.168 162.162 37.384C162.506 36.6 162.986 35.904 163.602 35.296C164.226 34.688 164.954 34.208 165.786 33.856C166.626 33.504 167.534 33.328 168.51 33.328C169.302 33.328 170.062 33.44 170.79 33.664C171.526 33.888 172.118 34.176 172.566 34.528L171.306 37.012C170.706 36.572 169.962 36.352 169.074 36.352C168.314 36.352 167.67 36.52 167.142 36.856C166.614 37.192 166.21 37.628 165.93 38.164C165.658 38.7 165.522 39.264 165.522 39.856C165.522 40.504 165.67 41.096 165.966 41.632C166.262 42.16 166.678 42.58 167.214 42.892C167.758 43.204 168.386 43.36 169.098 43.36C169.538 43.36 169.95 43.3 170.334 43.18C170.718 43.06 171.042 42.9 171.306 42.7L172.566 45.184C172.11 45.528 171.522 45.812 170.802 46.036C170.082 46.268 169.322 46.384 168.522 46.384ZM175.547 46V25.36H179.231V35.08C179.703 34.552 180.291 34.128 180.995 33.808C181.707 33.488 182.491 33.328 183.347 33.328C184.291 33.328 185.119 33.536 185.831 33.952C186.551 34.36 187.115 34.932 187.523 35.668C187.931 36.396 188.135 37.248 188.135 38.224V46H184.451V39.004C184.451 38.124 184.219 37.44 183.755 36.952C183.299 36.456 182.671 36.208 181.871 36.208C181.327 36.208 180.855 36.32 180.455 36.544C180.063 36.76 179.759 37.06 179.543 37.444C179.335 37.82 179.231 38.248 179.231 38.728V46H175.547ZM202.691 46L196.235 33.712H200.579L203.927 41.128L207.275 33.712H211.619L205.151 46H202.691ZM213.621 46V33.712H217.305V46H213.621ZM215.469 31.156C215.069 31.156 214.701 31.06 214.365 30.868C214.037 30.668 213.773 30.4 213.573 30.064C213.373 29.728 213.273 29.36 213.273 28.96C213.273 28.56 213.373 28.196 213.573 27.868C213.773 27.54 214.037 27.28 214.365 27.088C214.701 26.888 215.069 26.788 215.469 26.788C215.869 26.788 216.233 26.888 216.561 27.088C216.889 27.28 217.149 27.54 217.341 27.868C217.541 28.196 217.641 28.56 217.641 28.96C217.641 29.36 217.541 29.728 217.341 30.064C217.149 30.4 216.889 30.668 216.561 30.868C216.233 31.06 215.869 31.156 215.469 31.156ZM226.737 46.384C225.625 46.384 224.609 46.108 223.689 45.556C222.777 44.996 222.049 44.224 221.505 43.24C220.961 42.256 220.689 41.128 220.689 39.856C220.689 38.608 220.953 37.496 221.481 36.52C222.009 35.536 222.733 34.76 223.653 34.192C224.581 33.616 225.641 33.328 226.833 33.328C227.697 33.328 228.497 33.496 229.233 33.832C229.969 34.16 230.581 34.62 231.069 35.212V25.36H234.753V46H231.069V44.38C230.525 45.012 229.881 45.504 229.137 45.856C228.393 46.208 227.593 46.384 226.737 46.384ZM227.841 43.252C228.489 43.252 229.061 43.108 229.557 42.82C230.053 42.524 230.441 42.12 230.721 41.608C231.009 41.096 231.153 40.516 231.153 39.868C231.153 39.212 231.009 38.628 230.721 38.116C230.441 37.604 230.053 37.2 229.557 36.904C229.061 36.608 228.493 36.46 227.853 36.46C227.221 36.46 226.657 36.608 226.161 36.904C225.673 37.2 225.285 37.608 224.997 38.128C224.709 38.64 224.565 39.224 224.565 39.88C224.565 40.528 224.705 41.108 224.985 41.62C225.265 42.124 225.653 42.524 226.149 42.82C226.645 43.108 227.209 43.252 227.841 43.252ZM244.99 46.384C243.662 46.384 242.47 46.1 241.414 45.532C240.366 44.956 239.534 44.176 238.918 43.192C238.302 42.208 237.994 41.096 237.994 39.856C237.994 38.944 238.166 38.092 238.51 37.3C238.862 36.508 239.35 35.816 239.974 35.224C240.598 34.624 241.322 34.16 242.146 33.832C242.97 33.496 243.862 33.328 244.822 33.328C246.102 33.328 247.222 33.596 248.182 34.132C249.15 34.66 249.902 35.396 250.438 36.34C250.982 37.284 251.254 38.384 251.254 39.64C251.254 39.744 251.25 39.836 251.242 39.916C251.242 39.988 251.23 40.128 251.206 40.336H241.786C241.786 40.96 241.926 41.504 242.206 41.968C242.494 42.432 242.894 42.796 243.406 43.06C243.918 43.316 244.514 43.444 245.194 43.444C245.834 43.444 246.398 43.32 246.886 43.072C247.382 42.824 247.858 42.428 248.314 41.884L250.966 43.216C250.39 44.208 249.574 44.984 248.518 45.544C247.462 46.104 246.286 46.384 244.99 46.384ZM241.918 38.296H247.63C247.55 37.824 247.378 37.416 247.114 37.072C246.858 36.728 246.53 36.464 246.13 36.28C245.73 36.096 245.278 36.004 244.774 36.004C244.238 36.004 243.766 36.096 243.358 36.28C242.95 36.464 242.622 36.728 242.374 37.072C242.126 37.416 241.974 37.824 241.918 38.296ZM260.698 46.384C259.346 46.384 258.126 46.108 257.038 45.556C255.95 44.996 255.086 44.228 254.446 43.252C253.806 42.268 253.486 41.136 253.486 39.856C253.486 38.576 253.802 37.448 254.434 36.472C255.074 35.488 255.938 34.72 257.026 34.168C258.122 33.608 259.346 33.328 260.698 33.328C262.058 33.328 263.282 33.608 264.37 34.168C265.458 34.72 266.318 35.488 266.95 36.472C267.59 37.448 267.91 38.576 267.91 39.856C267.91 41.136 267.59 42.268 266.95 43.252C266.318 44.228 265.458 44.996 264.37 45.556C263.282 46.108 262.058 46.384 260.698 46.384ZM260.71 43.24C261.334 43.24 261.902 43.096 262.414 42.808C262.926 42.52 263.33 42.124 263.626 41.62C263.922 41.108 264.07 40.52 264.07 39.856C264.07 39.192 263.922 38.608 263.626 38.104C263.33 37.592 262.926 37.192 262.414 36.904C261.902 36.616 261.334 36.472 260.71 36.472C260.078 36.472 259.506 36.616 258.994 36.904C258.49 37.192 258.09 37.592 257.794 38.104C257.498 38.608 257.35 39.192 257.35 39.856C257.35 40.52 257.498 41.108 257.794 41.62C258.09 42.124 258.49 42.52 258.994 42.808C259.506 43.096 260.078 43.24 260.71 43.24Z" fill="#777777"/>
</svg>
